<?xml version="1.0" standalone="no"?>
<!DOCTYPE svg PUBLIC "-//W3C//DTD SVG 20010904//EN"
 "http://www.w3.org/TR/2001/REC-SVG-20010904/DTD/svg10.dtd">
<svg version="1.0" xmlns="http://www.w3.org/2000/svg"
 width="440.000000pt" height="440.000000pt" viewBox="0 0 440.000000 440.000000"
 preserveAspectRatio="xMidYMid meet">

<g transform="translate(0.000000,440.000000) scale(0.100000,-0.100000)"
fill="#000000" stroke="none">
<path d="M2075 4171 c-22 -10 -76 -53 -120 -96 -44 -44 -249 -239 -455 -434
-206 -196 -408 -390 -450 -431 -41 -42 -248 -240 -460 -441 -517 -492 -495
-470 -518 -515 -49 -96 -33 -185 48 -264 55 -54 129 -77 209 -65 71 10 106 34
231 154 63 60 116 109 117 107 2 -1 3 -372 3 -824 0 -798 1 -824 20 -875 26
-66 57 -101 119 -132 l49 -25 321 0 321 0 67 -45 c123 -81 281 -196 347 -252
38 -32 43 -33 122 -33 75 0 83 2 77 17 -16 41 -170 196 -256 258 -61 43 -68
55 -37 55 35 0 116 47 148 85 16 20 34 53 41 74 7 26 11 179 11 485 l0 446
170 0 169 0 3 -478 c3 -524 -2 -479 68 -548 19 -19 50 -40 68 -46 35 -13 40
-29 17 -48 -21 -18 -119 -168 -154 -239 l-31 -61 66 1 c61 1 66 3 77 28 7 14
15 31 19 36 5 6 27 39 50 74 23 36 69 93 101 128 l59 63 139 0 c128 0 139 -1
149 -20 14 -25 38 -26 64 -1 20 18 39 20 252 23 l232 3 -18 -25 c-27 -37 -195
-199 -268 -259 l-63 -51 90 0 89 0 102 102 c102 102 205 242 242 328 84 194
129 482 158 1020 5 96 12 218 16 272 7 94 6 97 -19 122 -33 32 -60 33 -122 1
-27 -13 -50 -23 -52 -21 -2 2 -2 91 -1 199 l3 197 130 -125 c71 -69 148 -134
170 -145 128 -62 280 -16 339 102 32 64 33 122 5 187 -22 51 -107 136 -504
501 -110 102 -247 230 -305 286 -58 55 -195 184 -305 285 -110 101 -222 207
-250 234 -28 28 -165 156 -305 286 -140 129 -275 255 -299 278 -66 64 -108 81
-193 81 -49 0 -86 -6 -113 -19z m299 -708 c99 -92 233 -217 296 -279 63 -61
211 -199 327 -305 l213 -194 0 -44 c0 -33 -3 -41 -12 -34 -48 38 -230 66 -343
52 -133 -16 -118 -12 -245 -72 -133 -62 -176 -95 -316 -235 l-73 -74 -33 39
c-58 67 -161 163 -218 202 -137 94 -322 151 -487 151 -80 0 -213 -25 -262 -48
l-41 -20 0 32 c0 27 19 50 148 178 148 147 854 817 861 818 2 0 85 -75 185
-167z m596 52 c13 -14 21 -25 18 -25 -2 0 -15 11 -28 25 -13 14 -21 25 -18 25
2 0 15 -11 28 -25z m-1020 -61 c0 -8 -19 -13 -24 -6 -3 5 1 9 9 9 8 0 15 -2
15 -3z m741 -241 c13 -16 12 -17 -3 -4 -17 13 -22 21 -14 21 2 0 10 -8 17 -17z
m-1691 -119 c0 -8 -19 -13 -24 -6 -3 5 1 9 9 9 8 0 15 -2 15 -3z m1920 -70 c0
-8 -19 -13 -24 -6 -3 5 1 9 9 9 8 0 15 -2 15 -3z m855 -263 c3 -5 2 -12 -3
-15 -5 -3 -9 1 -9 9 0 17 3 19 12 6z m-3121 -9 c3 -5 -1 -9 -9 -9 -8 0 -12 4
-9 9 3 4 7 8 9 8 2 0 6 -4 9 -8z m2327 -223 c30 -6 65 -12 78 -15 13 -3 51
-19 85 -37 l61 -32 3 -578 2 -577 -35 0 c-29 0 -39 -6 -55 -32 -11 -18 -20
-47 -20 -64 0 -43 -44 -185 -83 -268 -63 -136 -58 -131 -116 -134 l-51 -3 -1
453 c-1 249 -1 456 0 460 2 20 -34 83 -68 117 -58 58 -109 71 -278 71 l-143 0
-1 33 c-1 17 -1 36 0 40 2 10 -31 92 -69 173 l-29 62 66 63 c95 93 102 99 113
99 5 0 13 6 17 13 25 41 215 129 328 151 88 18 128 19 196 5z m-1298 -48 c31
-11 57 -18 57 -16 0 3 33 -11 73 -29 103 -47 209 -119 283 -192 l62 -62 -41
-78 c-22 -43 -50 -108 -63 -144 l-21 -65 -159 -5 c-144 -5 -164 -7 -208 -30
-27 -14 -60 -40 -74 -57 -50 -67 -51 -76 -52 -560 l0 -453 -162 0 c-120 1
-168 4 -180 14 -17 12 -18 64 -18 823 0 714 2 812 15 823 9 7 55 24 103 37 75
20 103 23 207 19 86 -3 137 -10 178 -25z m2493 -93 l29 -33 -32 29 c-31 28
-38 36 -30 36 2 0 16 -15 33 -32z m114 -104 c0 -8 -19 -13 -24 -6 -3 5 1 9 9
9 8 0 15 -2 15 -3z m-2024 -299 c15 -46 25 -87 22 -90 -3 -3 -44 -5 -91 -3
l-86 3 40 84 c22 47 44 90 51 98 18 22 34 -1 64 -92z m1705 38 c13 -16 12 -17
-3 -4 -17 13 -22 21 -14 21 2 0 10 -8 17 -17z m-165 -361 c-9 -55 -18 -149
-21 -208 -9 -174 -44 -531 -63 -634 l-17 -95 -3 468 -2 467 26 39 c22 34 82
77 92 66 2 -2 -3 -48 -12 -103z m-608 -495 c12 -15 18 -332 7 -359 -6 -15 -20
-18 -76 -18 l-69 0 21 51 c11 29 24 60 30 70 5 11 8 19 5 19 -2 0 4 23 14 51
10 28 24 84 31 125 12 75 18 85 37 61z m-2328 -787 c0 -5 -5 -10 -11 -10 -5 0
-7 5 -4 10 3 6 8 10 11 10 2 0 4 -4 4 -10z"/>
</g>
</svg>
